<svg width="315" height="148" viewBox="0 0 315 148" fill="none" xmlns="http://www.w3.org/2000/svg">
<path d="M97.1892 4.40335C138.644 -6.84814 115.722 7.16107 178.418 5.92711C227.261 4.96579 240.766 30.5578 293.843 40.4778C293.843 40.4778 303.652 46.7337 309.22 55.36C312.284 60.1069 322.251 79.544 303.443 104.589C289.379 123.317 257.517 114.064 220.315 136.511C183.114 158.959 130.061 139.946 89.2174 140.725C48.3736 141.504 28.6006 120.03 11.3581 105.418C-5.88438 90.8066 1.25215 88.9946 2.64134 79.6588C3.46592 74.1173 0.808471 72.8805 1.83059 66.0116C3.1298 57.2804 2.17085 53.3758 2.17085 53.3758C4.95821 52.6786 12.5577 50.8901 14.8948 46.6419C17.816 41.3317 55.7344 15.6548 97.1892 4.40335Z" fill="#2499C4"/>
</svg>
